<?xml version="1.0" encoding="utf-8"?>
<!-- Generator: Adobe Illustrator 24.1.0, SVG Export Plug-In . SVG Version: 6.00 Build 0)  -->
<svg version="1.1" id="Ebene_1" xmlns="http://www.w3.org/2000/svg" xmlns:xlink="http://www.w3.org/1999/xlink" x="0px" y="0px"
	 viewBox="0 0 283.5 25.5" style="enable-background:new 0 0 283.5 25.5;" xml:space="preserve">
<g>
	<path d="M274.3,0.6l9.1,24.4h-5.6l-1.9-5.4h-9.1L265,25h-5.4l9.3-24.4H274.3z M274.6,15.5l-3.1-8.9h-0.1l-3.2,8.9H274.6z M244.7,25
		l-7.9-24.4h5.5l5.4,17.1h0.1l5.5-17.1h5.6L250.7,25H244.7z M226.9,0.6l9.1,24.4h-5.6l-1.8-5.4h-9.1l-1.9,5.4h-5.4l9.3-24.4H226.9z
		 M227.2,15.5l-3.1-8.9h-0.1l-3.2,8.9H227.2z M193.2,19c0.3,0.6,0.7,1,1.2,1.4c0.5,0.4,1.1,0.6,1.7,0.8c0.7,0.2,1.3,0.3,2.1,0.3
		c0.5,0,1,0,1.5-0.1c0.5-0.1,1.1-0.2,1.5-0.5c0.5-0.2,0.9-0.5,1.2-0.9c0.3-0.4,0.5-0.9,0.5-1.5c0-0.7-0.2-1.2-0.6-1.6
		c-0.4-0.4-1-0.8-1.7-1c-0.7-0.3-1.5-0.5-2.3-0.7c-0.9-0.2-1.7-0.4-2.6-0.7c-0.9-0.2-1.8-0.5-2.7-0.8s-1.6-0.8-2.3-1.3
		c-0.7-0.5-1.2-1.2-1.7-2c-0.4-0.8-0.6-1.7-0.6-2.9c0-1.3,0.3-2.3,0.8-3.3c0.5-0.9,1.2-1.7,2.1-2.3c0.9-0.6,1.8-1.1,2.9-1.4
		c1.1-0.3,2.2-0.4,3.3-0.4c1.3,0,2.5,0.1,3.7,0.4c1.2,0.3,2.2,0.7,3.1,1.4c0.9,0.6,1.6,1.5,2.2,2.4c0.5,1,0.8,2.2,0.8,3.6h-5.2
		c0-0.7-0.2-1.3-0.5-1.8c-0.3-0.5-0.6-0.9-1-1.1c-0.4-0.3-0.9-0.5-1.5-0.6c-0.6-0.1-1.2-0.2-1.8-0.2c-0.4,0-0.9,0-1.3,0.1
		c-0.4,0.1-0.8,0.3-1.2,0.5c-0.4,0.2-0.6,0.5-0.9,0.9c-0.2,0.3-0.3,0.8-0.3,1.3c0,0.5,0.1,0.9,0.3,1.2c0.2,0.3,0.5,0.6,1.1,0.8
		c0.5,0.3,1.3,0.5,2.2,0.8c0.9,0.3,2.2,0.6,3.7,1c0.5,0.1,1.1,0.3,1.9,0.5c0.8,0.2,1.6,0.6,2.4,1.1c0.8,0.5,1.5,1.2,2.1,2.1
		c0.6,0.9,0.9,2,0.9,3.4c0,1.1-0.2,2.2-0.7,3.1c-0.4,1-1.1,1.8-1.9,2.5c-0.9,0.7-1.9,1.2-3.2,1.6c-1.3,0.4-2.7,0.6-4.4,0.6
		c-1.3,0-2.7-0.2-3.9-0.5c-1.3-0.3-2.4-0.8-3.4-1.6c-1-0.7-1.7-1.6-2.3-2.7c-0.6-1.1-0.8-2.4-0.8-3.9h5.2
		C192.7,17.7,192.9,18.4,193.2,19 M165.3,23.1c-1.8,1.6-4.4,2.4-7.7,2.4c-3.3,0-5.9-0.8-7.7-2.4c-1.8-1.6-2.7-4.1-2.7-7.4V0.6h5.4
		v15.2c0,0.7,0.1,1.3,0.2,1.9c0.1,0.6,0.4,1.2,0.7,1.7c0.4,0.5,0.9,0.9,1.5,1.2c0.7,0.3,1.5,0.5,2.6,0.5c1.9,0,3.2-0.4,4-1.3
		c0.7-0.9,1.1-2.2,1.1-4V0.6h5.4v15.2C168.1,19,167.2,21.5,165.3,23.1 M139.2,25h-5.4V0.6h5.4V25z M107.5,5.1V0.6h20v4.5h-7.3V25
		h-5.4V5.1H107.5z M97.9,0.6L107,25h-5.6l-1.9-5.4h-9.1L88.5,25h-5.4l9.3-24.4H97.9z M98.2,15.5l-3.1-8.9H95l-3.2,8.9H98.2z
		 M70.7,0.6c1.1,0,2.1,0.2,3,0.5c0.9,0.4,1.6,0.8,2.3,1.5c0.6,0.6,1.1,1.3,1.4,2.1c0.3,0.8,0.5,1.7,0.5,2.6c0,1.4-0.3,2.7-0.9,3.7
		c-0.6,1-1.6,1.8-3,2.4v0.1c0.7,0.2,1.2,0.5,1.6,0.8c0.4,0.4,0.8,0.8,1.1,1.3c0.3,0.5,0.5,1.1,0.6,1.7c0.1,0.6,0.2,1.2,0.3,1.8
		c0,0.4,0,0.8,0.1,1.4c0,0.5,0.1,1.1,0.1,1.6c0.1,0.5,0.1,1.1,0.3,1.6c0.1,0.5,0.3,0.9,0.6,1.2h-5.4c-0.3-0.8-0.5-1.7-0.5-2.8
		c-0.1-1.1-0.2-2.1-0.3-3.1c-0.2-1.3-0.6-2.2-1.2-2.8c-0.6-0.6-1.6-0.9-2.9-0.9h-5.4V25h-5.4V0.6H70.7z M68.8,11.6
		c1.2,0,2.2-0.3,2.8-0.8c0.6-0.5,0.9-1.4,0.9-2.7c0-1.2-0.3-2-0.9-2.6C71,5,70,4.7,68.8,4.7h-5.9v6.9H68.8z M27.9,7.8
		c0.5-1.6,1.3-2.9,2.4-4.1c1-1.2,2.3-2.1,3.8-2.7c1.5-0.7,3.2-1,5.1-1c1.9,0,3.6,0.3,5.1,1c1.5,0.7,2.7,1.6,3.8,2.7
		c1,1.2,1.8,2.5,2.4,4.1c0.5,1.6,0.8,3.3,0.8,5.1c0,1.8-0.3,3.4-0.8,5c-0.5,1.5-1.3,2.9-2.4,4c-1,1.1-2.3,2-3.8,2.7
		c-1.5,0.6-3.2,1-5.1,1c-1.9,0-3.6-0.3-5.1-1s-2.8-1.5-3.8-2.7c-1-1.1-1.8-2.5-2.4-4c-0.5-1.5-0.8-3.2-0.8-5
		C27.1,11.1,27.3,9.4,27.9,7.8 M32.8,15.9c0.2,1,0.6,1.8,1.1,2.6c0.5,0.8,1.2,1.4,2.1,1.9c0.8,0.5,1.9,0.7,3.1,0.7
		c1.2,0,2.2-0.2,3.1-0.7c0.8-0.5,1.5-1.1,2.1-1.9c0.5-0.8,0.9-1.6,1.1-2.6c0.2-1,0.4-2,0.4-3c0-1.1-0.1-2.1-0.4-3.1
		s-0.6-1.9-1.1-2.7c-0.5-0.8-1.2-1.4-2.1-1.9c-0.8-0.5-1.9-0.7-3.1-0.7c-1.2,0-2.2,0.2-3.1,0.7c-0.8,0.5-1.5,1.1-2.1,1.9
		c-0.5,0.8-0.9,1.7-1.1,2.7s-0.4,2-0.4,3.1C32.4,13.9,32.6,14.9,32.8,15.9 M5.4,0.6v9.4h9.9V0.6h5.4V25h-5.4V14.4H5.4V25H0V0.6H5.4z
		"/>
</g>
</svg>
